<svg width="260" height="80" viewBox="0 0 260 80" fill="none" xmlns="http://www.w3.org/2000/svg">
  <defs>
    <linearGradient id="grad" x1="0" y1="0" x2="1" y2="1">
      <stop offset="0%" stop-color="#0f4f2e"/>
      <stop offset="100%" stop-color="#caa34f"/>
    </linearGradient>
  </defs>
  <rect x="0" y="0" width="260" height="80" rx="20" fill="none"/>
  <path d="M38 14C55 14 65 23 65 36C65 49 55 58 38 58C29 58 22 54 17 48L8 62L22 54C16 48 12 41 12 36C12 23 21 14 38 14Z" fill="url(#grad)"/>
  <path d="M34 24.5C34 23.1 35.1 22 36.5 22C37.9 22 39 23.1 39 24.5C39 25.9 37.9 27 36.5 27C35.1 27 34 25.9 34 24.5Z" fill="#fff"/>
  <path d="M45 24.5C45 23.1 46.1 22 47.5 22C48.9 22 50 23.1 50 24.5C50 25.9 48.9 27 47.5 27C46.1 27 45 25.9 45 24.5Z" fill="#fff"/>
  <path d="M56 24.5C56 23.1 57.1 22 58.5 22C59.9 22 61 23.1 61 24.5C61 25.9 59.9 27 58.5 27C57.1 27 56 25.9 56 24.5Z" fill="#fff"/>
  <text x="82" y="52" fill="#13212b" font-family="Inter, sans-serif" font-size="32" font-weight="700">Threadly</text>
</svg>